<?xml version="1.0" encoding="UTF-8"?>
<!DOCTYPE svg PUBLIC "-//W3C//DTD SVG 1.1//EN" "http://www.w3.org/Graphics/SVG/1.1/DTD/svg11.dtd">
<!-- Creator: CorelDRAW -->
<svg xmlns="http://www.w3.org/2000/svg" xml:space="preserve" width="6.82666in" height="6.82666in" style="shape-rendering:geometricPrecision; text-rendering:geometricPrecision; image-rendering:optimizeQuality; fill-rule:evenodd; clip-rule:evenodd"
viewBox="0 0 6.82666 6.82666"
 xmlns:xlink="http://www.w3.org/1999/xlink">
 <defs>
  <style type="text/css">
   <![CDATA[
    .fil0 {fill:#00838F}
    .fil1 {fill:#FFFFFE}
   ]]>
  </style>
 </defs>
 <g id="Layer_x0020_1">
  <metadata id="CorelCorpID_0Corel-Layer"/>
  <rect class="fil0" width="6.82666" height="6.82666" rx="0.853335" ry="0.853335"/>
  <path class="fil1" d="M1.57333 0.853331l2.50201 0 0 1.07132c0,0.117783 0.0955591,0.213335 0.213335,0.213335l1.07132 0 0 3.72868c0,0.0589094 -0.0477598,0.106669 -0.106669,0.106669l-3.68 0c-0.0589094,0 -0.106669,-0.0477598 -0.106669,-0.106669l0 -4.90667c0,-0.0589094 0.0477598,-0.106669 0.106669,-0.106669zm0.454803 3.27876l2.77039 0 0 0.16 -2.77039 0 0 -0.16zm0 -0.549039l2.77039 0 0 0.16 -2.77039 0 0 -0.16zm0 1.09808l2.77039 0 0 0.16 -2.77039 0 0 -0.16zm0.587961 -1.95123l-0.000125984 0 -0.000208661 -3.93701e-006c-0.0703898,-9.05512e-005 -0.154894,-0.0288425 -0.219433,-0.0911181 -0.0515433,-0.0497362 -0.0905236,-0.120382 -0.0996063,-0.214114 -0.000669291,-0.00694488 -0.00119685,-0.0189764 -0.00158661,-0.0319843 -0.000527559,-0.0173701 -0.000846457,-0.0384528 -0.00092126,-0.0485945 -0.000937008,-0.120929 0.0381024,-0.199823 0.0997756,-0.249929 0.0600276,-0.0487717 0.138654,-0.0666969 0.22098,-0.0683189l-3.93701e-006 -0.000212598c0.00254331,-4.72441e-005 0.00503937,6.69291e-005 0.00749606,0.000338583 0.0804252,0.00227559 0.156992,0.0204606 0.21574,0.0681929 0.0616693,0.0501063 0.100713,0.129 0.0997756,0.249929 -7.48031e-005,0.0101417 -0.000393701,0.0312244 -0.00092126,0.0485945 -0.000389764,0.0130079 -0.000917323,0.0250394 -0.00158661,0.0319843 -0.00933858,0.0964055 -0.0452638,0.167114 -0.0964961,0.216543 -0.0598307,0.0577323 -0.138949,0.0845591 -0.220134,0.0884646l3.93701e-006 0.000161417c-0.000917323,4.33071e-005 -0.00183465,6.29921e-005 -0.00274803,6.29921e-005l0 3.93701e-006zm-0.332898 -0.148165c-0.0673898,0.0380433 -0.125425,0.0945 -0.169031,0.163516 -0.0540433,0.0855197 -0.0860315,0.190409 -0.0860315,0.303114l0 0.00848425c0,0.0369843 0.0135039,0.0711378 0.0352559,0.0963661 0.0236535,0.027437 0.0569173,0.0444724 0.0940787,0.0444724l0.917248 0c0.0371654,0 0.0704291,-0.0170354 0.0940827,-0.0444724 0.021752,-0.0252283 0.0352559,-0.0593819 0.0352559,-0.0963661l0 -0.00848425c0,-0.111921 -0.0314685,-0.216047 -0.084689,-0.301106 -0.0433189,-0.0692283 -0.101094,-0.125965 -0.168256,-0.164362 -0.0178898,0.0364921 -0.0417008,0.0701181 -0.0722795,0.099622 -0.182717,0.176307 -0.481524,0.120043 -0.595634,-0.100783zm2.00548 -0.550413c-0.0589094,0 -0.106669,-0.0477598 -0.106669,-0.106669l0 -0.963776c0,-0.0594173 0.0470197,-0.107543 0.106669,-0.107543 0.0297913,0 0.0567205,0.0122165 0.0760748,0.0319094l0.963992 0.963992 7.87402e-006 -7.87402e-006c0.0416535,0.0416535 0.0416535,0.109197 0,0.15085 -0.0208268,0.0208268 -0.048126,0.0312441 -0.0754252,0.0312402l-0.96465 3.93701e-006zm-0.876791 1.04056l1.37377 0 0 0.16 -1.37377 0 0 -0.16zm0.495374 -0.379024l0.143441 0.0454213c-0.0220276,0.0800906 -0.0585748,0.139512 -0.109799,0.178445 -0.0510591,0.0387638 -0.116118,0.0582283 -0.194839,0.0582283 -0.0973346,0 -0.177421,-0.0332953 -0.240087,-0.0997205 -0.0626732,-0.0665945 -0.0940906,-0.157614 -0.0940906,-0.272878 0,-0.122091 0.0315906,-0.216866 0.0946024,-0.284484 0.0630079,-0.0674528 0.145827,-0.101264 0.248626,-0.101264 0.0896457,0 0.162563,0.0264685 0.218571,0.0795787 0.0334685,0.031248 0.0584016,0.0763268 0.0751378,0.135067l-0.146685 0.0350039c-0.00853543,-0.0380787 -0.0266378,-0.0681299 -0.0542992,-0.0901575 -0.0274961,-0.0220276 -0.0609646,-0.0329567 -0.10024,-0.0329567 -0.0542992,0 -0.0985276,0.0194685 -0.132339,0.0585709 -0.033811,0.0389331 -0.0507165,0.102114 -0.0507165,0.189543 0,0.0927244 0.0165669,0.158807 0.0500315,0.198083 0.0332992,0.0394488 0.0766772,0.0590827 0.129953,0.0590827 0.0394449,0 0.073252,-0.0124646 0.101598,-0.037563 0.0283504,-0.024937 0.0486693,-0.0643819 0.0611339,-0.118zm0.457642 0.26963l-0.262118 -0.733413 0.160685 0 0.185445 0.542846 0.179642 -0.542846 0.157098 0 -0.26263 0.733413 -0.158122 0z"/>
 </g>
</svg>
