<svg xmlns="http://www.w3.org/2000/svg"  viewBox="0 0 48 48" width="48px" height="48px" baseProfile="basic"><linearGradient id="zlT103XX9RAwCGfF9JpW0a" x1="32" x2="32" y1="3.947" y2="44.751" gradientUnits="userSpaceOnUse"><stop offset=".006" stop-color="#ebb112"/><stop offset="1" stop-color="#bb5c17"/></linearGradient><path fill="url(#zlT103XX9RAwCGfF9JpW0a)" d="M27,44h10c1.105,0,2-0.895,2-2V6c0-1.105-0.895-2-2-2H27c-1.105,0-2,0.895-2,2v36	C25,43.105,25.895,44,27,44z"/><linearGradient id="zlT103XX9RAwCGfF9JpW0b" x1="22.089" x2="26.009" y1="13.14" y2="45.672" gradientUnits="userSpaceOnUse"><stop offset="0" stop-color="#fed35d"/><stop offset=".281" stop-color="#f6c648"/><stop offset=".857" stop-color="#e3a513"/><stop offset=".989" stop-color="#de9d06"/></linearGradient><path fill="url(#zlT103XX9RAwCGfF9JpW0b)" d="M19,44h10c1.105,0,2-0.895,2-2V16c0-1.105-0.895-2-2-2H19c-1.105,0-2,0.895-2,2v26	C17,43.105,17.895,44,19,44z"/><linearGradient id="zlT103XX9RAwCGfF9JpW0c" x1="9.803" x2="21.335" y1="22.781" y2="43.658" gradientUnits="userSpaceOnUse"><stop offset="0" stop-color="#ffd869"/><stop offset=".983" stop-color="#ffdf26"/></linearGradient><path fill="url(#zlT103XX9RAwCGfF9JpW0c)" d="M11,44h10c1.105,0,2-0.895,2-2V26c0-1.105-0.895-2-2-2H11c-1.105,0-2,0.895-2,2v16	C9,43.105,9.895,44,11,44z"/></svg>